<svg xmlns="http://www.w3.org/2000/svg" xmlns:xlink="http://www.w3.org/1999/xlink" width="1080" zoomAndPan="magnify" viewBox="0 0 810 809.999993" height="1080" preserveAspectRatio="xMidYMid meet" version="1.0"><path fill="#ffffff" d="M 324.777344 252.398438 C 316.769531 252.542969 308.167969 255.414062 300.265625 260.082031 C 292.359375 264.75 285.09375 271.289062 281.328125 280.007812 C 275.738281 292.960938 274.574219 310.738281 286.808594 325.730469 C 291.035156 330.90625 295.546875 333.84375 299.511719 335.324219 C 303.476562 336.800781 306.210938 337.101562 308.519531 338.027344 C 306.917969 340.28125 303.785156 344.449219 300.851562 348.066406 C 299.375 349.882812 297.941406 351.570312 296.835938 352.765625 C 296.6875 352.925781 296.867188 352.777344 296.707031 352.917969 C 296.226562 352.78125 295.953125 352.746094 295.300781 352.515625 C 292.695312 351.601562 289.011719 350.019531 285.039062 348.164062 C 277.085938 344.457031 267.855469 339.621094 261.640625 336.285156 C 257.628906 334.132812 253.425781 334.269531 249.925781 335.140625 C 246.429688 336.011719 243.378906 337.621094 240.808594 339.828125 C 235.390625 344.464844 231.15625 349.703125 229.109375 356.238281 C 227.0625 362.773438 227.222656 369.960938 228.703125 378.675781 C 229.472656 383.179688 231.679688 386.214844 234.074219 389.171875 C 236.46875 392.132812 239.015625 394.664062 242.273438 396.507812 C 261.878906 407.601562 286.28125 415.625 302.175781 419.125 C 305.550781 419.867188 308.472656 421.1875 312.996094 421.148438 C 315.257812 421.125 318.089844 420.449219 320.359375 418.804688 C 322.628906 417.160156 324.152344 414.925781 325.28125 412.515625 L 325.265625 412.515625 C 326.261719 410.394531 331.863281 401.511719 336.9375 393.707031 C 339.328125 390.027344 341.589844 386.507812 343.476562 383.484375 C 346.582031 386.753906 350.417969 391.105469 354.492188 396.0625 C 359.003906 401.546875 363.574219 407.398438 367.113281 412.167969 C 368.882812 414.550781 370.398438 416.667969 371.488281 418.289062 C 372.386719 419.621094 372.726562 420.3125 372.800781 420.378906 C 372.871094 420.753906 373.03125 421.464844 373.066406 422.234375 C 373.136719 423.820312 373.164062 426.085938 373.121094 428.761719 C 373.039062 434.109375 372.742188 441.121094 372.382812 448.503906 C 371.660156 463.269531 370.664062 479.355469 370.640625 488.007812 C 370.625 493.203125 370.414062 496.972656 372.578125 501.214844 C 374.664062 505.304688 378.476562 507.34375 382.15625 508.910156 C 382.390625 509.03125 445.441406 541.707031 468.039062 555.050781 C 471.914062 557.339844 475.933594 557.503906 479.527344 557.058594 C 483.121094 556.613281 486.4375 555.488281 489.386719 553.613281 C 495.167969 549.9375 500.875 546.242188 504.890625 539.53125 C 508.90625 532.816406 510.785156 524.109375 511.402344 510.847656 C 511.679688 504.929688 508.992188 501.910156 506.1875 498.4375 C 503.382812 494.96875 499.910156 491.742188 495.492188 489.667969 C 479.597656 482.183594 432.1875 457.121094 432.1875 457.121094 C 431.996094 457.019531 431.800781 456.925781 431.601562 456.84375 L 437.261719 436.484375 C 437.261719 436.480469 437.261719 436.476562 437.261719 436.472656 C 437.285156 436.386719 437.222656 436.390625 437.402344 436.472656 L 498.589844 464.246094 C 498.648438 464.277344 498.710938 464.304688 498.769531 464.332031 C 504.851562 466.882812 510.714844 467.269531 515.433594 465.488281 C 520.152344 463.707031 523.011719 460.582031 525.359375 458.222656 C 525.53125 458.050781 525.695312 457.871094 525.847656 457.679688 C 525.847656 457.679688 559.832031 415.808594 574.960938 399.671875 C 582.078125 392.085938 583.328125 382.738281 581.054688 375.632812 C 577.863281 365.652344 571.609375 358.648438 564.445312 354.605469 C 557.28125 350.566406 549.484375 349.230469 542.429688 348.847656 C 536.523438 348.523438 530.753906 351.359375 527.214844 355.765625 C 519.164062 365.757812 501.148438 387.78125 493.582031 395.363281 C 493.523438 395.425781 493.554688 395.425781 493.445312 395.378906 L 451.261719 377.640625 C 451.234375 377.628906 451.242188 377.636719 451.234375 377.628906 L 411.273438 335.128906 L 426.34375 328.90625 C 426.398438 328.886719 426.453125 328.902344 426.484375 328.921875 C 426.484375 328.921875 426.5 328.921875 426.5 328.921875 C 426.742188 329.160156 431.945312 334.277344 438.503906 340.035156 C 441.859375 342.980469 445.507812 346.039062 449.003906 348.652344 C 452.5 351.265625 455.546875 353.449219 459.308594 354.761719 C 468.300781 357.898438 476.945312 356.914062 483.558594 353.199219 C 490.167969 349.484375 494.832031 343.777344 498.992188 337.972656 C 501.296875 334.757812 502.878906 330.542969 502.644531 325.6875 C 502.414062 320.832031 500.042969 315.550781 495.519531 311.507812 C 482.421875 299.785156 458.605469 284.472656 441.070312 273.984375 C 432.410156 268.796875 423.664062 271.339844 420.835938 272.324219 C 420.808594 272.332031 420.78125 272.34375 420.753906 272.351562 L 371.140625 290.324219 C 371.015625 290.375 371.0625 290.40625 371.070312 290.480469 C 370.28125 283.390625 367.890625 277.1875 364.324219 272.128906 C 357.601562 262.59375 343.996094 252.054688 324.792969 252.398438 Z M 325.042969 266.675781 C 338.871094 266.425781 348.292969 274.171875 352.652344 280.355469 C 354.832031 283.445312 356.324219 287.117188 356.875 292.066406 C 356.875 292.074219 356.875 292.078125 356.875 292.082031 C 357.898438 301.144531 367.410156 306.742188 375.839844 303.808594 C 375.875 303.796875 375.90625 303.78125 375.9375 303.765625 L 425.535156 285.808594 C 427.222656 285.222656 430.429688 284.246094 433.734375 286.226562 C 450.855469 296.46875 474.808594 312.132812 485.996094 322.144531 C 488.058594 323.988281 488.328125 325.210938 488.382812 326.371094 C 488.4375 327.527344 487.949219 328.847656 487.378906 329.648438 C 483.671875 334.820312 480.015625 338.804688 476.558594 340.746094 C 473.097656 342.691406 469.914062 343.335938 464.007812 341.277344 C 463.46875 341.089844 460.566406 339.457031 457.550781 337.203125 C 454.539062 334.953125 451.109375 332.101562 447.929688 329.3125 C 441.574219 323.734375 436.230469 318.476562 436.230469 318.476562 C 436.144531 318.390625 436.058594 318.308594 435.964844 318.226562 C 431.855469 314.582031 426.003906 313.601562 420.921875 315.6875 C 420.917969 315.695312 420.910156 315.699219 420.90625 315.703125 L 405.804688 321.921875 C 396.816406 325.628906 394.152344 337.777344 400.828125 344.875 L 440.832031 387.402344 C 440.832031 387.40625 440.832031 387.410156 440.832031 387.417969 C 442.207031 388.875 443.886719 390.03125 445.726562 390.804688 L 487.90625 408.542969 C 493.265625 410.792969 499.570312 409.582031 503.691406 405.445312 C 512.863281 396.253906 530.230469 374.785156 538.34375 364.714844 C 538.34375 364.710938 538.34375 364.707031 538.34375 364.703125 C 539.515625 363.242188 540.027344 363.023438 541.648438 363.113281 C 547.414062 363.425781 553.027344 364.566406 557.417969 367.042969 C 561.808594 369.523438 565.25 373.082031 567.457031 379.984375 C 567.867188 381.261719 567.820312 386.40625 564.542969 389.898438 C 548.445312 407.066406 515.6875 447.566406 515.152344 448.226562 C 512.882812 450.5 511.367188 451.765625 510.398438 452.128906 C 509.414062 452.503906 508.242188 452.820312 504.304688 451.167969 L 443.300781 423.476562 C 435.402344 419.886719 425.847656 424.253906 423.515625 432.652344 L 417.824219 453.035156 C 415.902344 459.917969 419.519531 467.253906 426.082031 470.007812 L 425.507812 469.742188 C 425.507812 469.742188 472.339844 494.554688 489.414062 502.59375 C 490.886719 503.285156 493.414062 505.347656 495.089844 507.417969 C 496.761719 509.488281 497.042969 512.277344 497.136719 510.191406 C 496.570312 522.355469 494.820312 528.546875 492.632812 532.195312 C 490.449219 535.847656 487.386719 537.96875 481.730469 541.566406 C 480.960938 542.054688 479.234375 542.710938 477.769531 542.890625 C 476.304688 543.074219 475.246094 542.71875 475.300781 542.75 C 451.464844 528.675781 388.597656 496.164062 388.597656 496.164062 C 388.425781 496.074219 388.25 495.992188 388.070312 495.914062 C 384.925781 494.601562 385.167969 494.464844 385.292969 494.714844 C 385.421875 494.964844 384.902344 492.941406 384.917969 488.035156 C 384.9375 480.484375 385.917969 464.085938 386.648438 449.203125 C 387.011719 441.757812 387.3125 434.664062 387.398438 428.984375 C 387.445312 426.144531 387.425781 423.667969 387.332031 421.578125 C 387.234375 419.492188 387.488281 418.351562 386.328125 415.472656 C 385.476562 413.367188 384.625 412.230469 383.34375 410.328125 C 382.058594 408.421875 380.445312 406.152344 378.585938 403.648438 C 374.871094 398.636719 370.183594 392.667969 365.523438 387 C 360.859375 381.328125 356.253906 376 352.5 372.164062 C 350.621094 370.242188 349.066406 368.726562 347.242188 367.433594 C 346.328125 366.789062 345.5625 366.042969 343.183594 365.582031 C 341.996094 365.351562 340.023438 365.25 337.96875 366.390625 C 335.914062 367.527344 334.65625 369.742188 334.289062 371.199219 C 334.59375 369.992188 334.375 370.886719 333.898438 371.742188 C 333.40625 372.625 332.65625 373.878906 331.75 375.339844 C 329.9375 378.261719 327.492188 382.027344 324.960938 385.925781 C 319.890625 393.722656 314.722656 401.375 312.339844 406.449219 C 312.171875 406.808594 312.304688 406.589844 312.214844 406.730469 C 311.515625 406.617188 309.15625 406.042969 305.242188 405.179688 C 305.242188 405.175781 305.242188 405.171875 305.242188 405.167969 C 290.910156 402.011719 267.003906 394.09375 249.3125 384.085938 C 248.785156 383.785156 246.671875 382.03125 245.171875 380.179688 C 243.671875 378.328125 242.742188 376.015625 242.789062 376.277344 C 241.5 368.703125 241.660156 363.929688 242.730469 360.503906 C 243.804688 357.078125 245.808594 354.347656 250.09375 350.675781 C 250.835938 350.039062 252.261719 349.277344 253.371094 349 C 254.480469 348.726562 255.015625 348.9375 254.878906 348.863281 C 261.214844 352.265625 270.582031 357.179688 279 361.105469 C 283.207031 363.066406 287.15625 364.785156 290.574219 365.984375 C 292.28125 366.585938 293.84375 367.058594 295.480469 367.367188 C 297.121094 367.671875 298.769531 368.425781 302.214844 366.722656 L 302.214844 366.738281 C 305.332031 365.203125 305.824219 364.066406 307.292969 362.484375 C 308.761719 360.902344 310.351562 359.027344 311.949219 357.0625 C 315.140625 353.125 318.339844 348.859375 320.191406 346.253906 C 325.417969 338.890625 322.199219 328.136719 313.832031 324.78125 C 309.601562 323.085938 306.519531 322.703125 304.503906 321.949219 C 302.484375 321.199219 300.835938 320.347656 297.867188 316.707031 C 289.242188 306.140625 290.273438 295.316406 294.4375 285.667969 C 296.476562 280.949219 301.492188 275.945312 307.53125 272.378906 C 313.566406 268.8125 320.582031 266.753906 325.042969 266.675781 Z M 345.191406 407.21875 C 342.191406 411.871094 339.042969 416.851562 338.191406 418.59375 C 336.488281 422.234375 334.261719 425.292969 331.667969 427.8125 C 331.660156 427.8125 331.65625 427.8125 331.652344 427.8125 C 329.191406 430.203125 326.371094 432.046875 323.285156 433.335938 C 323.113281 433.40625 322.929688 433.460938 322.757812 433.527344 C 321.480469 434.027344 320.160156 434.414062 318.796875 434.714844 C 318.449219 434.789062 318.113281 434.890625 317.765625 434.953125 C 316.175781 435.234375 314.539062 435.410156 312.855469 435.410156 C 312.851562 435.410156 312.847656 435.410156 312.84375 435.410156 C 309.777344 435.417969 307.140625 434.914062 304.710938 434.367188 C 283.828125 444.6875 269.417969 466.085938 269.253906 490.921875 C 268.207031 491 267.167969 491.128906 266.132812 491.304688 C 265.097656 491.484375 264.074219 491.710938 263.0625 491.984375 C 262.050781 492.261719 261.050781 492.582031 260.070312 492.953125 C 259.085938 493.324219 258.125 493.738281 257.183594 494.203125 C 256.242188 494.664062 255.324219 495.167969 254.429688 495.71875 C 253.535156 496.269531 252.667969 496.859375 251.832031 497.492188 C 250.992188 498.125 250.1875 498.792969 249.414062 499.503906 C 248.640625 500.210938 247.902344 500.957031 247.199219 501.734375 C 246.496094 502.515625 245.832031 503.324219 245.207031 504.167969 C 244.582031 505.011719 243.996094 505.882812 243.453125 506.777344 C 242.914062 507.675781 242.414062 508.601562 241.960938 509.546875 C 241.503906 510.492188 241.097656 511.457031 240.734375 512.441406 C 240.371094 513.425781 240.054688 514.425781 239.789062 515.441406 C 239.519531 516.457031 239.304688 517.480469 239.132812 518.515625 C 238.964844 519.550781 238.84375 520.59375 238.773438 521.640625 C 238.703125 522.6875 238.683594 523.734375 238.714844 524.785156 C 238.742188 525.832031 238.824219 526.878906 238.953125 527.921875 C 239.082031 528.960938 239.261719 529.996094 239.488281 531.019531 C 239.714844 532.042969 239.992188 533.054688 240.316406 534.050781 C 240.640625 535.050781 241.011719 536.03125 241.429688 536.992188 C 241.847656 537.957031 242.308594 538.898438 242.816406 539.816406 C 243.324219 540.734375 243.875 541.625 244.464844 542.492188 C 245.058594 543.359375 245.691406 544.195312 246.363281 545 C 247.035156 545.804688 247.746094 546.578125 248.492188 547.316406 C 249.238281 548.054688 250.015625 548.757812 250.828125 549.417969 C 251.640625 550.082031 252.484375 550.707031 253.355469 551.292969 C 254.226562 551.875 255.125 552.414062 256.050781 552.914062 C 256.972656 553.410156 257.917969 553.863281 258.886719 554.273438 C 259.851562 554.679688 260.835938 555.042969 261.839844 555.355469 C 262.839844 555.667969 263.851562 555.933594 264.878906 556.152344 C 265.90625 556.371094 266.941406 556.539062 267.984375 556.65625 C 269.027344 556.773438 270.074219 556.84375 271.121094 556.863281 C 273.640625 556.859375 276.128906 556.574219 278.585938 556.003906 C 281.039062 555.429688 283.398438 554.589844 285.660156 553.476562 C 287.925781 552.367188 290.03125 551.011719 291.984375 549.417969 C 293.9375 547.824219 295.683594 546.027344 297.226562 544.035156 C 307.382812 550.90625 319.636719 554.925781 332.824219 554.925781 C 354.8125 554.925781 374.183594 543.761719 385.601562 526.800781 C 380.9375 524.367188 377.519531 522.578125 376.148438 521.863281 C 359.8125 514.6875 356.867188 503.46875 356.445312 492.066406 C 356.394531 490.703125 356.355469 489.324219 356.359375 487.953125 C 356.375 481.371094 356.945312 470.566406 357.546875 459.128906 C 357.886719 452.652344 358.265625 444.492188 358.550781 437 C 358.597656 435.769531 358.679688 434.457031 358.71875 433.304688 C 358.695312 433.296875 358.671875 433.289062 358.648438 433.277344 C 358.734375 430.4375 358.898438 426.960938 358.882812 425.066406 C 355.980469 420.847656 350.589844 413.863281 345.191406 407.21875 Z M 259.144531 421.59375 C 258.441406 421.59375 257.746094 421.660156 257.054688 421.800781 C 256.363281 421.9375 255.695312 422.140625 255.046875 422.410156 C 254.394531 422.675781 253.777344 423.007812 253.195312 423.398438 C 252.609375 423.789062 252.070312 424.234375 251.570312 424.730469 C 251.074219 425.226562 250.628906 425.769531 250.238281 426.351562 C 249.847656 426.9375 249.519531 427.554688 249.25 428.203125 C 248.980469 428.855469 248.777344 429.523438 248.640625 430.214844 C 248.503906 430.902344 248.433594 431.597656 248.433594 432.300781 C 248.433594 433.003906 248.503906 433.703125 248.640625 434.390625 C 248.777344 435.082031 248.980469 435.75 249.25 436.398438 C 249.519531 437.050781 249.847656 437.667969 250.238281 438.25 C 250.628906 438.835938 251.074219 439.378906 251.570312 439.875 C 252.070312 440.371094 252.609375 440.816406 253.195312 441.207031 C 253.777344 441.597656 254.394531 441.925781 255.046875 442.195312 C 255.695312 442.464844 256.363281 442.667969 257.054688 442.804688 C 257.746094 442.941406 258.441406 443.011719 259.144531 443.011719 C 259.847656 443.011719 260.542969 442.941406 261.234375 442.804688 C 261.921875 442.667969 262.59375 442.464844 263.242188 442.195312 C 263.890625 441.925781 264.507812 441.597656 265.09375 441.207031 C 265.679688 440.816406 266.21875 440.371094 266.714844 439.875 C 267.214844 439.378906 267.65625 438.835938 268.046875 438.25 C 268.4375 437.667969 268.769531 437.050781 269.039062 436.398438 C 269.308594 435.75 269.511719 435.082031 269.648438 434.390625 C 269.785156 433.703125 269.851562 433.003906 269.851562 432.300781 C 269.851562 431.597656 269.785156 430.902344 269.648438 430.214844 C 269.511719 429.523438 269.308594 428.855469 269.039062 428.203125 C 268.769531 427.554688 268.4375 426.9375 268.046875 426.351562 C 267.65625 425.769531 267.214844 425.226562 266.714844 424.730469 C 266.21875 424.234375 265.679688 423.789062 265.09375 423.398438 C 264.507812 423.007812 263.890625 422.675781 263.242188 422.410156 C 262.59375 422.140625 261.921875 421.9375 261.234375 421.800781 C 260.542969 421.660156 259.847656 421.59375 259.144531 421.59375 Z M 259.144531 421.59375 " fill-opacity="1" fill-rule="nonzero"/></svg>