<svg xmlns="http://www.w3.org/2000/svg" xmlns:xlink="http://www.w3.org/1999/xlink" width="1080" zoomAndPan="magnify" viewBox="0 0 810 809.999993" height="1080" preserveAspectRatio="xMidYMid meet" version="1.0"><defs><clipPath id="7b792807fb"><path d="M 524 426 L 578 426 L 578 533.242188 L 524 533.242188 Z M 524 426 " clip-rule="nonzero"/></clipPath><clipPath id="8586fc2655"><path d="M 512 297.742188 L 565 297.742188 L 565 312 L 512 312 Z M 512 297.742188 " clip-rule="nonzero"/></clipPath></defs><path fill="#ffffff" d="M 389.128906 380.007812 C 387.238281 380.15625 384.519531 380.878906 381.707031 383.363281 C 377.328125 387.238281 374.15625 394.203125 372.160156 404.34375 L 389.601562 404.34375 C 391.011719 396.199219 398.117188 389.976562 406.660156 389.976562 C 415.207031 389.976562 422.308594 396.195312 423.71875 404.34375 L 441.160156 404.34375 C 439.167969 394.203125 435.996094 387.238281 431.617188 383.363281 C 428.804688 380.875 426.082031 380.15625 424.195312 380.007812 C 423.929688 379.976562 423.664062 379.953125 423.394531 379.953125 L 422.332031 379.953125 C 418.328125 383.988281 412.792969 386.46875 406.6875 386.46875 C 405.949219 386.46875 405.203125 386.429688 404.46875 386.355469 C 399.3125 385.84375 394.605469 383.589844 391 379.953125 L 389.929688 379.953125 C 389.65625 379.953125 389.390625 379.976562 389.128906 380.007812 Z M 389.128906 380.007812 " fill-opacity="1" fill-rule="nonzero"/><path fill="#ffffff" d="M 406.660156 395.171875 C 400.992188 395.171875 396.234375 399.082031 394.90625 404.34375 L 418.414062 404.34375 C 417.089844 399.082031 412.328125 395.171875 406.660156 395.171875 Z M 406.660156 395.171875 " fill-opacity="1" fill-rule="nonzero"/><path fill="#ffffff" d="M 415.253906 346.90625 L 398.691406 346.613281 C 392.539062 349.378906 387.988281 355.25 387.269531 362.445312 C 386.199219 373.15625 394.015625 382.703125 404.726562 383.773438 C 415.4375 384.839844 424.984375 377.023438 426.054688 366.316406 C 426.882812 357.992188 422.339844 350.394531 415.253906 346.90625 Z M 402 360.460938 C 403.617188 360.058594 405.253906 361.039062 405.65625 362.65625 C 406.0625 364.269531 405.078125 365.90625 403.464844 366.3125 C 401.851562 366.714844 400.214844 365.734375 399.808594 364.121094 C 399.40625 362.503906 400.386719 360.867188 402 360.460938 Z M 417.457031 362.808594 C 415.84375 363.210938 414.207031 362.230469 413.800781 360.617188 C 413.398438 359 414.378906 357.363281 415.996094 356.960938 C 417.609375 356.554688 419.246094 357.535156 419.652344 359.152344 C 420.054688 360.765625 419.074219 362.402344 417.457031 362.808594 Z M 417.457031 362.808594 " fill-opacity="1" fill-rule="nonzero"/><path fill="#ffffff" d="M 278.042969 532.21875 C 279.53125 532.21875 280.738281 531.011719 280.738281 529.527344 L 280.738281 510.503906 L 265.320312 510.503906 C 260.050781 510.503906 255.003906 508.835938 250.8125 505.761719 L 250.8125 529.527344 C 250.8125 531.011719 252.015625 532.21875 253.503906 532.21875 Z M 278.042969 532.21875 " fill-opacity="1" fill-rule="nonzero"/><path fill="#ffffff" d="M 449.90625 510.503906 L 449.90625 529.527344 C 449.90625 531.011719 451.113281 532.21875 452.597656 532.21875 L 477.140625 532.21875 C 478.628906 532.21875 479.832031 531.011719 479.832031 529.527344 L 479.832031 505.761719 C 475.640625 508.835938 470.589844 510.503906 465.320312 510.503906 Z M 449.90625 510.503906 " fill-opacity="1" fill-rule="nonzero"/><path fill="#ffffff" d="M 482.5625 381.6875 L 458.558594 381.6875 L 438.582031 345.261719 C 435.148438 339 428.625 335.058594 421.484375 334.933594 L 365.320312 333.929688 L 309.15625 334.933594 C 302.015625 335.058594 295.496094 339 292.058594 345.261719 L 272.085938 381.6875 L 248.082031 381.6875 C 243.203125 381.6875 243.203125 399.421875 248.082031 399.421875 L 262.359375 399.421875 L 252.210938 417.925781 C 248.285156 425.085938 246.226562 433.125 246.226562 441.292969 L 246.226562 485.917969 C 246.226562 491.160156 248.382812 496.175781 252.1875 499.78125 C 255.734375 503.140625 260.4375 505.011719 265.320312 505.011719 L 465.320312 505.011719 C 470.207031 505.011719 474.90625 503.140625 478.453125 499.78125 C 482.257812 496.175781 484.417969 491.160156 484.417969 485.917969 L 484.417969 441.292969 C 484.417969 433.125 482.355469 425.085938 478.429688 417.925781 L 468.28125 399.421875 L 482.5625 399.421875 C 487.4375 399.421875 487.4375 381.6875 482.5625 381.6875 Z M 271.335938 402.089844 L 300.085938 349.664062 C 301.941406 346.28125 305.464844 344.148438 309.324219 344.082031 L 365.320312 343.082031 L 421.320312 344.082031 C 425.179688 344.148438 428.703125 346.28125 430.558594 349.660156 L 459.308594 402.089844 C 460.589844 404.425781 458.898438 407.277344 456.238281 407.277344 L 274.40625 407.277344 C 271.742188 407.277344 270.054688 404.425781 271.335938 402.089844 Z M 307.074219 440.9375 C 306.074219 443.054688 303.90625 444.253906 301.699219 444.128906 L 272.839844 442.457031 C 266.667969 442.097656 261.960938 436.808594 262.316406 430.640625 C 262.671875 424.472656 267.964844 419.761719 274.128906 420.121094 C 275.59375 420.203125 277.007812 420.585938 278.253906 421.171875 L 304.40625 433.503906 C 307.195312 434.820312 308.390625 438.148438 307.074219 440.9375 Z M 399.9375 490.808594 C 399.9375 491.878906 399.066406 492.746094 398 492.746094 L 332.644531 492.746094 C 331.574219 492.746094 330.707031 491.878906 330.707031 490.808594 L 330.707031 478.234375 C 330.707031 477.164062 331.574219 476.296875 332.644531 476.296875 L 398 476.296875 C 399.066406 476.296875 399.9375 477.164062 399.9375 478.234375 Z M 461.929688 441.40625 C 460.605469 442.03125 459.183594 442.371094 457.804688 442.457031 L 428.941406 444.128906 C 425.863281 444.304688 423.222656 441.957031 423.046875 438.878906 C 422.910156 436.535156 424.242188 434.449219 426.238281 433.503906 L 452.386719 421.171875 C 457.972656 418.535156 464.640625 420.929688 467.277344 426.515625 C 469.910156 432.105469 467.519531 438.769531 461.929688 441.40625 Z M 461.929688 441.40625 " fill-opacity="1" fill-rule="nonzero"/><path fill="#ffffff" d="M 577.15625 421.917969 L 577.15625 408.171875 L 560.996094 402.929688 C 560.046875 406.984375 559.378906 411.332031 559.15625 415.925781 L 533.894531 408.28125 C 534.753906 385.714844 547.152344 368.6875 550.03125 365.027344 L 575.175781 372.632812 C 573.570312 374.738281 570.816406 378.664062 568.03125 384.035156 L 577.15625 386.996094 L 577.15625 374.914062 C 577.164062 374.902344 577.171875 374.890625 577.179688 374.878906 C 578.734375 378.085938 580.238281 382.46875 581.433594 388.382812 L 586.109375 389.902344 L 585.589844 392.097656 L 565.933594 385.71875 C 561.820312 384.382812 557.410156 386.636719 556.078125 390.746094 C 554.742188 394.855469 556.996094 399.269531 561.105469 400.601562 L 581.984375 407.375 L 588.757812 409.574219 C 588.773438 409.578125 588.789062 409.578125 588.804688 409.585938 C 589.15625 409.695312 589.515625 409.78125 589.886719 409.84375 C 589.949219 409.855469 590.015625 409.863281 590.078125 409.871094 C 590.429688 409.921875 590.78125 409.953125 591.144531 409.953125 C 591.152344 409.953125 591.164062 409.957031 591.171875 409.957031 C 591.1875 409.957031 591.203125 409.953125 591.214844 409.953125 C 591.40625 409.953125 591.597656 409.945312 591.792969 409.929688 C 591.941406 409.917969 592.085938 409.890625 592.230469 409.871094 C 592.3125 409.863281 592.390625 409.855469 592.472656 409.839844 C 592.828125 409.78125 593.171875 409.695312 593.507812 409.59375 C 593.566406 409.574219 593.621094 409.554688 593.679688 409.535156 C 594.015625 409.421875 594.339844 409.289062 594.652344 409.132812 C 594.671875 409.125 594.6875 409.117188 594.707031 409.109375 C 595.03125 408.941406 595.34375 408.75 595.640625 408.542969 C 595.699219 408.503906 595.753906 408.460938 595.8125 408.417969 C 596.097656 408.207031 596.375 407.980469 596.628906 407.730469 C 596.664062 407.699219 596.691406 407.664062 596.722656 407.632812 C 596.949219 407.402344 597.160156 407.160156 597.355469 406.90625 C 597.40625 406.839844 597.460938 406.777344 597.507812 406.707031 C 597.714844 406.421875 597.902344 406.121094 598.066406 405.808594 C 598.101562 405.746094 598.132812 405.679688 598.164062 405.613281 C 598.335938 405.269531 598.488281 404.917969 598.609375 404.546875 C 598.609375 404.546875 598.609375 404.546875 598.613281 404.546875 C 598.617188 404.53125 598.617188 404.519531 598.621094 404.503906 C 598.695312 404.273438 598.761719 404.039062 598.8125 403.800781 C 598.832031 403.707031 598.84375 403.613281 598.859375 403.519531 C 598.890625 403.363281 598.921875 403.207031 598.9375 403.046875 C 598.960938 402.871094 598.96875 402.699219 598.976562 402.523438 C 598.980469 402.445312 598.988281 402.367188 598.992188 402.285156 C 598.996094 401.988281 598.984375 401.691406 598.957031 401.394531 C 597.152344 378.976562 591.546875 363.769531 582.289062 356.203125 C 577.535156 352.320312 573.035156 351.453125 570.445312 351.328125 C 570.167969 351.296875 569.886719 351.277344 569.597656 351.277344 L 531.816406 351.277344 C 531.589844 351.277344 531.367188 351.289062 531.144531 351.308594 C 525.109375 351.515625 507.949219 355.621094 503.132812 394.699219 C 503.128906 394.722656 503.128906 394.746094 503.125 394.769531 C 503.121094 394.816406 503.113281 394.859375 503.109375 394.902344 C 503.101562 394.964844 503.101562 395.023438 503.09375 395.082031 C 503.078125 395.261719 503.0625 395.441406 503.058594 395.621094 C 503.054688 395.726562 503.058594 395.828125 503.058594 395.933594 C 503.058594 396.082031 503.0625 396.226562 503.070312 396.378906 C 503.082031 396.515625 503.097656 396.652344 503.113281 396.789062 C 503.128906 396.902344 503.140625 397.015625 503.160156 397.128906 C 503.1875 397.296875 503.222656 397.460938 503.261719 397.625 C 503.277344 397.691406 503.285156 397.757812 503.304688 397.824219 C 503.308594 397.839844 503.316406 397.855469 503.320312 397.871094 C 503.421875 398.25 503.554688 398.621094 503.710938 398.980469 C 503.742188 399.050781 503.773438 399.117188 503.804688 399.1875 C 503.964844 399.519531 504.140625 399.839844 504.34375 400.148438 C 504.386719 400.214844 504.4375 400.28125 504.484375 400.347656 C 504.683594 400.632812 504.898438 400.90625 505.136719 401.164062 C 505.160156 401.1875 505.179688 401.214844 505.203125 401.238281 C 505.460938 401.507812 505.742188 401.757812 506.039062 401.992188 C 506.089844 402.03125 506.140625 402.074219 506.195312 402.113281 C 506.492188 402.335938 506.808594 402.535156 507.136719 402.71875 C 507.183594 402.742188 507.234375 402.765625 507.28125 402.789062 C 507.617188 402.964844 507.964844 403.121094 508.328125 403.246094 C 508.335938 403.25 508.347656 403.253906 508.355469 403.257812 C 508.703125 403.375 509.066406 403.460938 509.433594 403.527344 C 509.527344 403.546875 509.621094 403.5625 509.714844 403.578125 C 509.785156 403.589844 509.855469 403.605469 509.929688 403.613281 C 510.21875 403.648438 510.503906 403.664062 510.789062 403.667969 C 510.816406 403.667969 510.839844 403.675781 510.867188 403.675781 C 510.871094 403.675781 510.878906 403.671875 510.882812 403.671875 C 511.183594 403.671875 511.480469 403.648438 511.773438 403.617188 C 511.839844 403.609375 511.90625 403.597656 511.972656 403.589844 C 512.242188 403.550781 512.507812 403.5 512.769531 403.433594 C 512.792969 403.425781 512.820312 403.425781 512.847656 403.417969 L 512.976562 403.382812 C 512.988281 403.382812 513.003906 403.378906 513.015625 403.375 L 519.6875 401.632812 L 532.019531 398.414062 C 531.878906 399.210938 531.75 400.019531 531.632812 400.839844 L 524.261719 402.761719 L 524.261719 421.917969 Z M 515.855469 386.464844 L 515.304688 384.28125 L 521.355469 382.703125 C 522.253906 379.527344 523.246094 376.941406 524.261719 374.859375 L 524.261719 381.945312 L 538.535156 378.214844 C 538.128906 379.070312 537.730469 379.945312 537.335938 380.855469 Z M 515.855469 386.464844 " fill-opacity="1" fill-rule="nonzero"/><g clip-path="url(#7b792807fb)"><path fill="#ffffff" d="M 536.351562 533.632812 C 543.027344 533.632812 548.441406 528.222656 548.441406 521.542969 L 548.441406 448.078125 L 552.972656 448.078125 L 552.972656 521.542969 C 552.972656 528.222656 558.390625 533.632812 565.0625 533.632812 C 571.742188 533.632812 577.15625 528.222656 577.15625 521.542969 L 577.15625 426.222656 L 524.261719 426.222656 L 524.261719 521.542969 C 524.261719 528.222656 529.675781 533.632812 536.351562 533.632812 Z M 536.351562 533.632812 " fill-opacity="1" fill-rule="nonzero"/></g><path fill="#ffffff" d="M 524.234375 323.5 C 524.234375 325.152344 524.417969 326.832031 524.808594 328.511719 C 527.574219 340.34375 539.410156 347.695312 551.242188 344.929688 C 563.074219 342.160156 570.425781 330.328125 567.65625 318.496094 C 567.21875 316.617188 566.550781 314.851562 565.691406 313.222656 L 564.542969 306.765625 L 522.230469 314.273438 L 514.226562 325.277344 Z M 534.992188 335.945312 L 532.3125 334.753906 C 534.175781 330.554688 548.160156 329.378906 554.085938 329.066406 L 554.238281 331.996094 C 544.695312 332.5 535.703125 334.34375 534.992188 335.945312 Z M 534.992188 335.945312 " fill-opacity="1" fill-rule="nonzero"/><g clip-path="url(#8586fc2655)"><path fill="#ffffff" d="M 564.050781 303.992188 L 562.941406 297.742188 L 512.652344 301.492188 L 521.476562 311.546875 Z M 564.050781 303.992188 " fill-opacity="1" fill-rule="nonzero"/></g></svg>