<svg xmlns="http://www.w3.org/2000/svg" xmlns:xlink="http://www.w3.org/1999/xlink" width="1080" zoomAndPan="magnify" viewBox="0 0 810 809.999993" height="1080" preserveAspectRatio="xMidYMid meet" version="1.0"><defs><clipPath id="4596c2bba3"><path d="M 376 537 L 471 537 L 471 604.5 L 376 604.5 Z M 376 537 " clip-rule="nonzero"/></clipPath><clipPath id="0861dd4e65"><path d="M 245.429688 398 L 271 398 L 271 566 L 245.429688 566 Z M 245.429688 398 " clip-rule="nonzero"/></clipPath><clipPath id="93ecaef025"><path d="M 270 537 L 366 537 L 366 604.5 L 270 604.5 Z M 270 537 " clip-rule="nonzero"/></clipPath><clipPath id="e6d2f0f205"><path d="M 482 537 L 577 537 L 577 604.5 L 482 604.5 Z M 482 537 " clip-rule="nonzero"/></clipPath><clipPath id="f1256b7265"><path d="M 576 398 L 601.679688 398 L 601.679688 566 L 576 566 Z M 576 398 " clip-rule="nonzero"/></clipPath></defs><path fill="#ffffff" d="M 342.84375 331.429688 C 342.84375 328.367188 345.347656 325.863281 348.410156 325.863281 L 498.703125 325.863281 C 501.761719 325.863281 504.269531 328.367188 504.269531 331.429688 L 504.269531 342.5625 L 515.402344 342.5625 L 515.402344 331.429688 C 515.402344 322.246094 507.886719 314.730469 498.703125 314.730469 L 429.121094 314.730469 L 429.121094 291.074219 C 431.625 289.402344 434.132812 290.238281 440.53125 293.578125 C 444.429688 295.527344 449.160156 298.03125 454.449219 298.03125 C 458.34375 298.03125 462.519531 296.640625 466.695312 292.464844 C 467.808594 291.351562 468.085938 289.960938 468.085938 288.570312 L 468.085938 257.398438 C 468.085938 255.171875 466.695312 252.945312 464.46875 252.109375 C 462.519531 251.550781 460.015625 251.832031 458.34375 253.5 C 455.285156 256.839844 452.777344 256.285156 445.542969 252.386719 C 438.863281 248.769531 428.84375 243.480469 419.378906 253.5 C 418.546875 254.613281 417.988281 256.003906 417.988281 257.398438 L 417.988281 314.730469 L 348.410156 314.730469 C 339.222656 314.730469 331.710938 322.246094 331.710938 331.429688 L 331.710938 342.5625 L 342.84375 342.5625 Z M 342.84375 331.429688 " fill-opacity="1" fill-rule="nonzero"/><path fill="#ffffff" d="M 398.507812 501.203125 C 398.507812 515.121094 409.640625 526.253906 423.554688 526.253906 C 437.472656 526.253906 448.605469 515.121094 448.605469 501.203125 C 448.605469 487.289062 437.472656 476.15625 423.554688 476.15625 C 409.640625 476.15625 398.507812 487.289062 398.507812 501.203125 Z M 398.507812 501.203125 " fill-opacity="1" fill-rule="nonzero"/><g clip-path="url(#4596c2bba3)"><path fill="#ffffff" d="M 443.59375 537.386719 L 403.515625 537.386719 C 388.488281 537.386719 376.242188 549.910156 376.242188 565.21875 L 376.242188 587.484375 C 376.242188 596.667969 383.753906 604.183594 392.941406 604.183594 L 454.171875 604.183594 C 463.355469 604.183594 470.871094 596.667969 470.871094 587.484375 L 470.871094 565.21875 C 470.871094 549.910156 458.625 537.386719 443.59375 537.386719 Z M 459.738281 587.484375 C 459.738281 590.546875 457.230469 593.050781 454.171875 593.050781 L 392.941406 593.050781 C 389.878906 593.050781 387.375 590.546875 387.375 587.484375 L 387.375 565.21875 C 387.375 556.035156 394.609375 548.519531 403.515625 548.519531 L 443.59375 548.519531 C 452.5 548.519531 459.738281 556.035156 459.738281 565.21875 Z M 459.738281 587.484375 " fill-opacity="1" fill-rule="nonzero"/></g><g clip-path="url(#0861dd4e65)"><path fill="#ffffff" d="M 262.128906 409.359375 L 270.480469 409.359375 L 270.480469 398.226562 L 262.128906 398.226562 C 252.945312 398.226562 245.429688 405.742188 245.429688 414.925781 L 245.429688 556.867188 C 245.429688 561.601562 249.046875 565.21875 253.78125 565.21875 L 259.347656 565.21875 C 259.347656 561.320312 259.902344 557.703125 261.015625 554.085938 L 256.5625 554.085938 L 256.5625 414.925781 C 256.5625 411.863281 259.066406 409.359375 262.128906 409.359375 Z M 262.128906 409.359375 " fill-opacity="1" fill-rule="nonzero"/></g><path fill="#ffffff" d="M 292.746094 501.203125 C 292.746094 515.121094 303.878906 526.253906 317.792969 526.253906 C 331.710938 526.253906 342.84375 515.121094 342.84375 501.203125 C 342.84375 487.289062 331.710938 476.15625 317.792969 476.15625 C 303.878906 476.15625 292.746094 487.289062 292.746094 501.203125 Z M 292.746094 501.203125 " fill-opacity="1" fill-rule="nonzero"/><g clip-path="url(#93ecaef025)"><path fill="#ffffff" d="M 337.832031 537.386719 L 297.753906 537.386719 C 282.726562 537.386719 270.480469 549.910156 270.480469 565.21875 L 270.480469 587.484375 C 270.480469 596.667969 277.992188 604.183594 287.179688 604.183594 L 348.410156 604.183594 C 357.59375 604.183594 365.109375 596.667969 365.109375 587.484375 L 365.109375 565.21875 C 365.109375 549.910156 352.863281 537.386719 337.832031 537.386719 Z M 353.976562 587.484375 C 353.976562 590.546875 351.46875 593.050781 348.410156 593.050781 L 287.179688 593.050781 C 284.117188 593.050781 281.613281 590.546875 281.613281 587.484375 L 281.613281 565.21875 C 281.613281 556.035156 288.847656 548.519531 297.753906 548.519531 L 337.832031 548.519531 C 346.738281 548.519531 353.976562 556.035156 353.976562 565.21875 Z M 353.976562 587.484375 " fill-opacity="1" fill-rule="nonzero"/></g><path fill="#ffffff" d="M 504.269531 501.203125 C 504.269531 515.121094 515.402344 526.253906 529.316406 526.253906 C 543.234375 526.253906 554.367188 515.121094 554.367188 501.203125 C 554.367188 487.289062 543.234375 476.15625 529.316406 476.15625 C 515.402344 476.15625 504.269531 487.289062 504.269531 501.203125 Z M 504.269531 501.203125 " fill-opacity="1" fill-rule="nonzero"/><g clip-path="url(#e6d2f0f205)"><path fill="#ffffff" d="M 549.355469 537.386719 L 509.277344 537.386719 C 494.25 537.386719 482.003906 549.910156 482.003906 565.21875 L 482.003906 587.484375 C 482.003906 596.667969 489.515625 604.183594 498.703125 604.183594 L 559.933594 604.183594 C 569.117188 604.183594 576.632812 596.667969 576.632812 587.484375 L 576.632812 565.21875 C 576.632812 549.910156 564.386719 537.386719 549.355469 537.386719 Z M 565.5 587.484375 C 565.5 590.546875 562.992188 593.050781 559.933594 593.050781 L 498.703125 593.050781 C 495.640625 593.050781 493.136719 590.546875 493.136719 587.484375 L 493.136719 565.21875 C 493.136719 556.035156 500.371094 548.519531 509.277344 548.519531 L 549.355469 548.519531 C 558.261719 548.519531 565.5 556.035156 565.5 565.21875 Z M 565.5 587.484375 " fill-opacity="1" fill-rule="nonzero"/></g><g clip-path="url(#f1256b7265)"><path fill="#ffffff" d="M 584.980469 398.226562 L 576.632812 398.226562 L 576.632812 409.359375 L 584.980469 409.359375 C 588.042969 409.359375 590.546875 411.863281 590.546875 414.925781 L 590.546875 554.085938 L 586.09375 554.085938 C 587.207031 557.703125 587.765625 561.320312 587.765625 565.21875 L 593.332031 565.21875 C 598.0625 565.21875 601.679688 561.601562 601.679688 556.867188 L 601.679688 414.925781 C 601.679688 405.742188 594.164062 398.226562 584.980469 398.226562 Z M 584.980469 398.226562 " fill-opacity="1" fill-rule="nonzero"/></g><path fill="#ffffff" d="M 387.375 501.203125 C 387.375 497.308594 387.929688 493.691406 389.042969 490.070312 L 379.023438 490.070312 C 369.839844 490.070312 362.324219 497.585938 362.324219 506.769531 L 362.324219 535.160156 C 365.664062 537.941406 368.449219 541.28125 370.675781 544.902344 C 371.507812 543.507812 372.34375 542.117188 373.457031 541.003906 L 373.457031 506.769531 C 373.457031 503.710938 375.960938 501.203125 379.023438 501.203125 Z M 387.375 501.203125 " fill-opacity="1" fill-rule="nonzero"/><path fill="#ffffff" d="M 484.785156 535.160156 L 484.785156 506.769531 C 484.785156 497.585938 477.269531 490.070312 468.085938 490.070312 L 458.066406 490.070312 C 459.179688 493.691406 459.738281 497.308594 459.738281 501.203125 L 468.085938 501.203125 C 471.148438 501.203125 473.652344 503.710938 473.652344 506.769531 L 473.652344 541.003906 C 474.765625 542.398438 475.601562 543.511719 476.4375 544.902344 C 478.664062 541.28125 481.445312 537.941406 484.785156 535.160156 Z M 484.785156 535.160156 " fill-opacity="1" fill-rule="nonzero"/><path fill="#ffffff" d="M 317.792969 465.023438 C 335.882812 465.023438 350.914062 478.382812 353.417969 495.636719 C 357.59375 485.898438 367.613281 478.9375 379.023438 478.9375 L 389.042969 478.9375 C 390.714844 478.9375 392.660156 479.496094 394.054688 480.054688 C 400.734375 471.144531 411.585938 465.023438 423.554688 465.023438 C 435.523438 465.023438 446.378906 471.144531 453.058594 480.054688 C 454.726562 479.21875 456.398438 478.9375 458.066406 478.9375 L 468.085938 478.9375 C 479.496094 478.9375 489.238281 485.898438 493.691406 495.636719 C 496.476562 478.382812 511.226562 465.023438 529.316406 465.023438 C 549.355469 465.023438 565.5 481.167969 565.5 501.203125 L 565.5 370.394531 C 565.5 361.210938 557.984375 353.695312 548.800781 353.695312 L 298.3125 353.695312 C 289.125 353.695312 281.613281 361.210938 281.613281 370.394531 L 281.613281 501.203125 C 281.613281 481.167969 297.753906 465.023438 317.792969 465.023438 Z M 501.484375 387.09375 C 501.484375 384.03125 503.988281 381.527344 507.050781 381.527344 L 518.183594 381.527344 C 521.246094 381.527344 523.75 384.03125 523.75 387.09375 L 523.75 403.792969 C 523.75 406.855469 521.246094 409.359375 518.183594 409.359375 L 507.050781 409.359375 C 503.988281 409.359375 501.484375 406.855469 501.484375 403.792969 Z M 501.484375 437.191406 C 501.484375 434.128906 503.988281 431.625 507.050781 431.625 L 518.183594 431.625 C 521.246094 431.625 523.75 434.128906 523.75 437.191406 L 523.75 453.890625 C 523.75 456.953125 521.246094 459.457031 518.183594 459.457031 L 507.050781 459.457031 C 503.988281 459.457031 501.484375 456.953125 501.484375 453.890625 Z M 456.953125 387.09375 C 456.953125 384.03125 459.457031 381.527344 462.519531 381.527344 L 473.652344 381.527344 C 476.714844 381.527344 479.21875 384.03125 479.21875 387.09375 L 479.21875 403.792969 C 479.21875 406.855469 476.714844 409.359375 473.652344 409.359375 L 462.519531 409.359375 C 459.457031 409.359375 456.953125 406.855469 456.953125 403.792969 Z M 456.953125 437.191406 C 456.953125 434.128906 459.457031 431.625 462.519531 431.625 L 473.652344 431.625 C 476.714844 431.625 479.21875 434.128906 479.21875 437.191406 L 479.21875 453.890625 C 479.21875 456.953125 476.714844 459.457031 473.652344 459.457031 L 462.519531 459.457031 C 459.457031 459.457031 456.953125 456.953125 456.953125 453.890625 Z M 412.421875 387.09375 C 412.421875 384.03125 414.925781 381.527344 417.988281 381.527344 L 429.121094 381.527344 C 432.183594 381.527344 434.6875 384.03125 434.6875 387.09375 L 434.6875 403.792969 C 434.6875 406.855469 432.183594 409.359375 429.121094 409.359375 L 417.988281 409.359375 C 414.925781 409.359375 412.421875 406.855469 412.421875 403.792969 Z M 412.421875 437.191406 C 412.421875 434.128906 414.925781 431.625 417.988281 431.625 L 429.121094 431.625 C 432.183594 431.625 434.6875 434.128906 434.6875 437.191406 L 434.6875 453.890625 C 434.6875 456.953125 432.183594 459.457031 429.121094 459.457031 L 417.988281 459.457031 C 414.925781 459.457031 412.421875 456.953125 412.421875 453.890625 Z M 367.890625 387.09375 C 367.890625 384.03125 370.394531 381.527344 373.457031 381.527344 L 384.589844 381.527344 C 387.652344 381.527344 390.15625 384.03125 390.15625 387.09375 L 390.15625 403.792969 C 390.15625 406.855469 387.652344 409.359375 384.589844 409.359375 L 373.457031 409.359375 C 370.394531 409.359375 367.890625 406.855469 367.890625 403.792969 Z M 367.890625 437.191406 C 367.890625 434.128906 370.394531 431.625 373.457031 431.625 L 384.589844 431.625 C 387.652344 431.625 390.15625 434.128906 390.15625 437.191406 L 390.15625 453.890625 C 390.15625 456.953125 387.652344 459.457031 384.589844 459.457031 L 373.457031 459.457031 C 370.394531 459.457031 367.890625 456.953125 367.890625 453.890625 Z M 323.359375 387.09375 C 323.359375 384.03125 325.863281 381.527344 328.925781 381.527344 L 340.058594 381.527344 C 343.121094 381.527344 345.625 384.03125 345.625 387.09375 L 345.625 403.792969 C 345.625 406.855469 343.121094 409.359375 340.058594 409.359375 L 328.925781 409.359375 C 325.863281 409.359375 323.359375 406.855469 323.359375 403.792969 Z M 323.359375 437.191406 C 323.359375 434.128906 325.863281 431.625 328.925781 431.625 L 340.058594 431.625 C 343.121094 431.625 345.625 434.128906 345.625 437.191406 L 345.625 453.890625 C 345.625 456.953125 343.121094 459.457031 340.058594 459.457031 L 328.925781 459.457031 C 325.863281 459.457031 323.359375 456.953125 323.359375 453.890625 Z M 323.359375 437.191406 " fill-opacity="1" fill-rule="nonzero"/></svg>